Coordinates
version=1
nRows=19
nColumns=24
inDegrees=yes

Units are S.I. units (second, meters, Newtons, ...)
Angles are in degrees.

endheader
time	pelvis_tilt	pelvis_list	pelvis_rotation	pelvis_tx	pelvis_ty	pelvis_tz	hip_flexion_r	hip_adduction_r	hip_rotation_r	knee_angle_r	ankle_angle_r	subtalar_angle_r	mtp_angle_r	hip_flexion_l	hip_adduction_l	hip_rotation_l	knee_angle_l	ankle_angle_l	subtalar_angle_l	mtp_angle_l	lumbar_extension	lumbar_bending	lumbar_rotation
      0.69000000	     -1.54892084	      0.70322975	      1.36831169	     -0.51924927	      1.05815632	      0.28837544	     14.73641685	      1.37626072	     -0.94209414	    -27.96877482	     17.03724138	     -3.60508680	      5.08987916	     17.55312012	     -3.08514612	     -5.67983221	    -69.96940821	      7.04595569	      9.08651977	      7.09881222	     -9.97964165	      2.18928927	     -0.08372366
      0.69416667	     -1.55503820	      0.90945232	      1.37417447	     -0.51350296	      1.05975629	      0.28837731	     14.12147251	      1.15680972	     -0.91040310	    -27.41011105	     17.04739596	     -3.54784930	      5.09404465	     18.06939975	     -2.80918092	     -5.81730089	    -69.44542225	      7.27458158	      9.09303378	      7.09361300	     -9.99403270	      1.95211281	     -0.04045576
      0.69833333	     -1.54969858	      1.13360766	      1.36912104	     -0.50777186	      1.06135596	      0.28838844	     13.49612199	      0.91923146	     -0.86945383	    -26.84891962	     17.04314239	     -3.49903034	      5.09857683	     18.55530605	     -2.51525248	     -5.96760333	    -68.85351415	      7.48933198	      9.10001478	      7.08928546	    -10.02148601	      1.69350840	      0.00383608
      0.70250000	     -1.54211669	      1.34869739	      1.35876027	     -0.50204166	      1.06291146	      0.28838798	     12.86746445	      0.69188985	     -0.82383694	    -26.28086096	     17.03390024	     -3.45789493	      5.10401014	     19.02592833	     -2.23265371	     -6.11984800	    -68.20772543	      7.69259647	      9.10877895	      7.08514091	    -10.05315767	      1.44579497	      0.05713457
      0.70666667	     -1.54695694	      1.56270665	      1.34041927	     -0.49628375	      1.06439332	      0.28840428	     12.25252783	      0.46565626	     -0.78751044	    -25.71130123	     17.01156107	     -3.41915072	      5.10800374	     19.49347647	     -1.95901778	     -6.28646234	    -67.50951367	      7.89644892	      9.11188360	      7.08280861	    -10.05269915	      1.17850110	      0.09747245
      0.71083333	     -1.53106195	      1.79409008	      1.30376029	     -0.49058086	      1.06586343	      0.28843090	     11.62655879	      0.22586032	     -0.70808081	    -25.15680151	     16.99918687	     -3.39554813	      5.11554808	     19.92018893	     -1.66240401	     -6.45091835	    -66.74276260	      8.06482908	      9.10444347	      7.07713812	    -10.11804641	      0.92197786	      0.17812536
      0.71500000	     -1.52753492	      2.01308639	      1.26669886	     -0.48485231	      1.06724062	      0.28846355	     11.01533438	     -0.00413072	     -0.65828665	    -24.60141668	     16.96699785	     -3.36491506	      5.12120851	     20.34979878	     -1.38807563	     -6.62306467	    -65.93831234	      8.24233989	      9.09277818	      7.07291691	    -10.13903686	      0.64296563	      0.23359551
      0.71916667	     -1.49554732	      2.23046645	      1.21581798	     -0.47914807	      1.06861650	      0.28850489	     10.37422772	     -0.22651345	     -0.57079746	    -24.04151113	     16.96400220	     -3.35805004	      5.13490563	     20.73126388	     -1.11738714	     -6.79732028	    -65.07652086	      8.37403466	      9.04343656	      7.06106705	    -10.21055108	      0.38683333	      0.35976497
      0.72333333	     -1.50448781	      2.45147056	      1.16231432	     -0.47344461	      1.06983574	      0.28852794	      9.79383941	     -0.45890815	     -0.50325577	    -23.51088948	     16.93018994	     -3.34221959	      5.14430961	     21.14653096	     -0.84076498	     -6.96601352	    -64.17568794	      8.51823106	      9.01274712	      7.05142553	    -10.22848426	      0.12772219	      0.42829590
      0.72750000	     -1.49629327	      2.66770061	      1.10223033	     -0.46774236	      1.07103362	      0.28856553	      9.19547605	     -0.68421398	     -0.42720891	    -22.97751639	     16.89610965	     -3.33434268	      5.15306781	     21.52698280	     -0.57394387	     -7.13289594	    -63.22501659	      8.63758322	      8.95547313	      7.03969571	    -10.26684073	     -0.13467188	      0.50620579
      0.73166667	     -1.47371067	      2.87348619	      1.03755698	     -0.46205481	      1.07216828	      0.28860200	      8.58578265	     -0.89802318	     -0.34603390	    -22.44783105	     16.88415484	     -3.33604989	      5.16463783	     21.88197566	     -0.32387594	     -7.30167784	    -62.23972357	      8.72976188	      8.87098408	      7.02239999	    -10.32372810	     -0.39117641	      0.61394479
      0.73583333	     -1.49250734	      3.08328100	      0.96884585	     -0.45637287	      1.07314627	      0.28863397	      8.04098041	     -1.11989953	     -0.27459186	    -21.95696914	     16.84570242	     -3.32632363	      5.17081975	     22.26929642	     -0.06833782	     -7.46129849	    -61.21502055	      8.82553718	      8.80323334	      7.00881426	    -10.33786690	     -0.64205721	      0.67938204
      0.74000000	     -1.46562073	      3.27742788	      0.89304904	     -0.45070933	      1.07411493	      0.28867913	      7.44524267	     -1.32094374	     -0.18864695	    -21.45748270	     16.85391984	     -3.33522176	      5.18159541	     22.59608766	      0.16330635	     -7.62027403	    -60.15675132	      8.87306483	      8.67484476	      6.98443428	    -10.40406068	     -0.88760898	      0.80925816
      0.74416667	     -1.48299918	      3.47141713	      0.81517175	     -0.44504997	      1.07493619	      0.28870991	      6.91553942	     -1.52679335	     -0.11273348	    -20.99153081	     16.82271874	     -3.33485094	      5.18713298	     22.95752367	      0.39800350	     -7.76361501	    -59.05882239	      8.92649988	      8.58415041	      6.96451898	    -10.42159337	     -1.11928108	      0.88864074
      0.74833333	     -1.47018735	      3.64991418	      0.73822746	     -0.43941163	      1.07570563	      0.28873704	      6.35316368	     -1.71415094	     -0.02969856	    -20.52131595	     16.83455402	     -3.34399661	      5.19714355	     23.27932861	      0.61343341	     -7.89662606	    -57.93825517	      8.93868559	      8.42919550	      6.92921040	    -10.48341934	     -1.34756662	      1.03300338
      0.75250000	     -1.48503797	      3.82949338	      0.65597552	     -0.43377575	      1.07634623	      0.28876909	      5.84273378	     -1.90602692	      0.03851085	    -20.09451033	     16.82610149	     -3.35136102	      5.20085410	     23.61615108	      0.82558802	     -8.02792523	    -56.77988981	      8.94666714	      8.31995994	      6.90469416	    -10.50028863	     -1.56475959	      1.10575186
      0.75666667	     -1.51260431	      3.99128130	      0.57792262	     -0.42814483	      1.07685924	      0.28878307	      5.35094748	     -2.07950622	      0.10735471	    -19.67628678	     16.84144701	     -3.35949575	      5.20366627	     23.96031589	      1.01989388	     -8.13904368	    -55.60239938	      8.92734901	      8.17455988	      6.87738145	    -10.50988856	     -1.76521829	      1.20391272
      0.76083333	     -1.52555335	      4.14831832	      0.49859357	     -0.42252969	      1.07732605	      0.28879822	      4.85209911	     -2.24899293	      0.17135596	    -19.27185944	     16.85952366	     -3.36653937	      5.20480778	     24.27459291	      1.20778859	     -8.23934838	    -54.39043485	      8.88595188	      8.02395758	      6.84925595	    -10.54029732	     -1.96289541	      1.30382035
      0.76500000	     -1.52010982	      4.27712638	      0.42316853	     -0.41693795	      1.07771826	      0.28879269	      4.33774026	     -2.38761924	      0.23547919	    -18.87398888	     16.90863069	     -3.37374755	      5.20512774	     24.56392692	      1.36757654	     -8.31516172	    -53.16566864	      8.82439024	      7.83343985	      6.80730370	    -10.59434224	     -2.12738483	      1.45413117
